<svg xmlns="http://www.w3.org/2000/svg" version="1.1" xmlns:xlink="http://www.w3.org/1999/xlink" xmlns:svgjs="http://svgjs.com/svgjs" width="512" height="512" x="0" y="0" viewBox="0 0 419 419" style="enable-background:new 0 0 512 512" xml:space="preserve" class=""><g transform="matrix(1.0200000000000007,0,0,1.0200000000000007,-4.190000000000055,-2.890000000000015)"><path d="M419 40c0-22.09-17.91-40-40-40H40C17.91 0 0 17.91 0 40v209c0 22.09 17.91 40 40 40h339c22.09 0 40-17.91 40-40zm-123.75 83.09 101.73-90.074A19.787 19.787 0 0 1 398 39.69V248.31a20.14 20.14 0 0 1-.293 4.168zM378.3 20a20.122 20.122 0 0 1 3.36.152L222.031 161.203c-7.586 6.676-18.953 6.652-26.511-.055L36.316 20.176A19.605 19.605 0 0 1 39.7 20zM20.466 253.133a19.823 19.823 0 0 1-.465-4.824V39.69a19.716 19.716 0 0 1 1.016-6.664l100.703 89.262zM39.699 268a19.982 19.982 0 0 1-5.273-.574L136.57 135.508l45.684 40.531c15.125 13.406 37.871 13.434 53.027.063l44.965-39.75 103.938 130.914c-1.914.539-3.899.785-5.883.734zm0 0" fill="#000000" data-original="#000000" class=""></path></g></svg>